<svg xmlns="http://www.w3.org/2000/svg" xmlns:xlink="http://www.w3.org/1999/xlink" width="128" height="128" viewBox="0 0 128 128" fill="none">
<path d="M21.7053 24.8698C21.7649 25.0842 21.8494 25.3718 21.9599 25.7309L21.9599 25.7324L21.9613 25.7353C22.1208 26.1588 22.1933 26.5358 22.1781 26.8684C22.1649 27.1562 22.084 27.4166 21.9381 27.648C21.8173 27.8396 21.6437 28.0221 21.4159 28.1964C21.3252 28.2657 21.2197 28.339 21.0988 28.416C21.0263 28.4621 20.9176 28.5289 20.773 28.6153C20.5993 28.719 20.4731 28.7958 20.3948 28.848C20.1152 29.0343 19.7622 29.2317 19.3359 29.4385C19.1565 29.5255 18.9429 29.6246 18.6944 29.7367C18.5423 29.8052 18.2988 29.9134 17.9643 30.0611C17.3974 30.3111 16.9502 30.512 16.6232 30.6618C16.3899 30.7687 16.1334 30.8985 15.8552 31.0516C15.5491 31.2201 15.2424 31.4019 14.933 31.5985C14.1925 32.0691 13.5366 32.5572 12.9679 33.0633C12.2772 33.6778 11.7675 34.275 11.4363 34.8538C11.0423 35.542 10.9148 36.1847 11.0552 36.7811C11.1765 37.2967 11.3063 37.7761 11.445 38.2211C11.574 38.635 11.7194 39.0468 11.8813 39.456C12.0211 39.8094 12.1903 40.2041 12.389 40.6385C12.5115 40.9065 12.7138 41.3339 12.9941 41.9214C13.195 42.3424 13.3493 42.6689 13.4595 42.9033C13.7344 43.4874 14.0496 44.4359 14.4035 45.7483C14.721 46.9252 15.0596 48.3536 15.4188 50.0334C15.7412 51.5408 16.0606 53.161 16.3788 54.8931C16.6714 56.4856 16.9329 58.01 17.1628 59.4662C17.2728 60.163 17.3955 61.151 17.5293 62.4291C17.6661 63.7354 17.8006 65.2102 17.9337 66.8538C18.0753 68.6022 18.2026 70.3965 18.3163 72.2371C18.44 74.2407 18.5409 76.1867 18.6173 78.0756C18.7737 81.9419 18.8494 85.4072 18.8457 88.4712C18.844 89.9261 18.8237 91.2266 18.7846 92.3738C18.7459 93.5123 18.6904 94.4641 18.6173 95.229C18.5769 95.6532 18.5256 96.1328 18.4632 96.6661C18.4257 96.9866 18.3662 97.4708 18.2857 98.1192C18.1964 98.8385 18.1314 99.3793 18.0893 99.7425C18.0189 100.351 17.9601 100.903 17.9148 101.399C17.8008 102.645 17.7446 103.791 17.7446 104.836C17.7446 105.641 18.0498 106.53 18.661 107.501C19.1619 108.297 19.8608 109.139 20.757 110.025C21.4361 110.696 22.2103 111.375 23.0799 112.062C23.5851 112.462 24.1199 112.861 24.6842 113.26C24.8717 113.392 25.0941 113.539 25.3533 113.703C25.6838 113.912 26.0418 114.127 26.4253 114.346C27.4419 114.928 28.5477 115.492 29.7417 116.039C31.2749 116.742 32.8851 117.383 34.5723 117.964C36.5983 118.661 38.6928 119.254 40.8559 119.744C43.0886 120.25 45.1222 120.592 46.9592 120.769C48.6288 120.931 50.1285 120.956 51.4581 120.845C52.648 120.746 53.696 120.539 54.5999 120.222C55.3916 119.945 56.0671 119.586 56.6261 119.148C57.1405 118.744 57.5702 118.149 57.9162 117.363C58.2536 116.597 58.5234 115.62 58.7264 114.43C58.9208 113.292 59.0626 111.909 59.1512 110.279C59.2333 108.769 59.2748 106.954 59.2748 104.836C59.2748 102.838 59.325 100.874 59.4261 98.9425C59.5237 97.0788 59.6605 95.3912 59.8362 93.8807C60.0124 92.3661 60.212 91.1635 60.4355 90.2705C60.5485 89.8187 60.6637 89.4632 60.7817 89.2058C60.8406 89.0773 60.8992 88.9752 60.9577 88.8989C61.0128 88.8269 61.0662 88.7797 61.1177 88.7578C61.1392 88.7485 61.172 88.7352 61.2137 88.7171C61.3686 88.6497 61.4819 88.6039 61.5555 88.5789C61.6736 88.5389 61.7802 88.5147 61.8755 88.5091C61.9862 88.5025 62.0953 88.5184 62.2013 88.5556C62.3208 88.5976 62.444 88.6695 62.5708 88.7709C62.8536 88.9969 63.1766 89.3905 63.541 89.9534C63.9368 90.5651 64.4073 91.4155 64.9519 92.5047C65.5242 93.6493 66.1949 94.875 66.9635 96.1803C67.7056 97.4404 68.503 98.7152 69.3562 100.004C70.2006 101.28 71.0533 102.5 71.9133 103.664C72.7868 104.846 73.6199 105.907 74.4152 106.846C74.9104 107.432 75.3552 107.946 75.7475 108.388C76.2922 109.002 76.8281 109.582 77.3562 110.129C78.6979 111.519 80.0819 112.793 81.5075 113.948C85.3087 117.028 89.5493 119.395 94.229 121.05C96.7288 121.934 98.925 122.477 100.817 122.676C102.419 122.845 103.797 122.769 104.952 122.445C105.862 122.19 106.636 121.778 107.276 121.212C107.515 121.001 107.742 120.762 107.957 120.494C108.039 120.393 108.124 120.281 108.212 120.16C108.262 120.089 108.333 119.988 108.422 119.859L108.424 119.857L108.425 119.854C110.498 116.306 112.172 112.796 113.448 109.326C113.905 108.083 114.311 106.839 114.668 105.594C114.801 105.131 114.932 104.652 115.06 104.16C115.133 103.876 115.226 103.501 115.34 103.036L115.34 103.034C115.704 101.444 115.99 100.034 116.2 98.8029C116.432 97.4395 116.6 96.1316 116.702 94.8785C116.808 93.5707 116.853 92.2197 116.836 90.8261C116.818 89.4282 116.737 87.8904 116.593 86.2123C116.583 86.1019 116.571 85.9576 116.556 85.7789C116.518 85.3256 116.489 84.9933 116.469 84.7825C116.437 84.4385 116.406 84.1363 116.374 83.8749C116.299 83.2499 116.201 82.6675 116.081 82.1294L116.081 82.1265L116.079 82.1236C116.031 81.9669 115.974 81.771 115.908 81.5345C115.853 81.3432 115.813 81.2123 115.79 81.1418C115.752 81.0294 115.714 80.9408 115.673 80.8756C115.628 80.8027 115.57 80.7402 115.5 80.6894C115.438 80.6439 115.351 80.5982 115.241 80.5512L115.234 80.5483L115.227 80.5469C114.913 80.4899 114.592 80.463 114.264 80.4669C114.133 80.4685 113.988 80.4744 113.832 80.4858C113.738 80.4926 113.6 80.5048 113.416 80.5221C113.304 80.5326 113.22 80.5406 113.164 80.5454C112.435 80.6084 111.634 80.6238 110.761 80.592C109.898 80.5604 108.991 80.4843 108.041 80.3622C107.088 80.2398 106.122 80.075 105.142 79.8691C104.145 79.6595 103.166 79.4134 102.203 79.1301C101.21 78.8382 100.261 78.5149 99.3577 78.16C98.4176 77.7907 97.5472 77.3956 96.7468 76.9745C95.9082 76.5335 95.1618 76.0717 94.5068 75.5898C93.8189 75.0837 93.2413 74.562 92.7744 74.0247C92.4835 73.6899 92.2439 73.4067 92.0559 73.1738C91.8514 72.9206 91.6886 72.7025 91.5657 72.5207C91.4393 72.3338 91.3478 72.172 91.2908 72.0363C91.2358 71.9056 91.2106 71.7927 91.2152 71.6974C91.2191 71.6099 91.2489 71.5309 91.3053 71.4603C91.3616 71.3901 91.4492 71.3217 91.5672 71.2552C91.6736 71.1952 91.8178 71.1301 92.0021 71.0589C92.1174 71.0142 92.3161 70.9432 92.597 70.8451C92.822 70.7664 92.9961 70.7035 93.1192 70.6589C93.3299 70.5824 93.5273 70.508 93.7112 70.4349C94.19 70.2443 94.6469 70.0372 95.0828 69.8138C96.2477 69.2167 97.3679 68.449 98.4413 67.5098C99.8162 66.3069 101.133 64.9118 102.393 63.3251C103.492 61.9425 104.53 60.4347 105.51 58.8014C106.34 57.4198 107.105 55.985 107.807 54.4974C108.381 53.2822 108.879 52.1057 109.3 50.9702C109.481 50.4797 109.632 49.8358 109.753 49.0371C109.872 48.257 109.956 47.3662 110.006 46.3665C110.057 45.3639 110.07 44.3024 110.046 43.1811C110.021 42.0302 109.959 40.8714 109.858 39.7033C109.752 38.4817 109.608 37.2989 109.426 36.1556C109.234 34.9453 109.005 33.8144 108.738 32.7636C108.454 31.6441 108.135 30.6401 107.778 29.7513C107.397 28.801 106.98 27.998 106.527 27.3411C105.626 26.0333 104.696 24.8103 103.74 23.6727C102.844 22.607 101.916 21.6046 100.953 20.6662C100.066 19.8013 99.1379 18.9764 98.1664 18.192C97.297 17.4899 96.3677 16.8004 95.3795 16.1222C94.8863 15.7836 94.2543 15.3946 93.4842 14.9542C92.6396 14.4712 91.711 13.9736 90.6973 13.4633C89.5635 12.8925 88.3879 12.3372 87.1715 11.7978C85.8114 11.1947 84.4422 10.6305 83.0639 10.1047C81.5359 9.52185 80.025 8.99739 78.5301 8.53091C76.889 8.01888 75.2872 7.58276 73.7242 7.22327C72.024 6.83218 70.383 6.53434 68.8021 6.33018C67.0956 6.1098 65.469 6 63.9206 6C60.9311 6 57.9721 6.1798 55.0435 6.53964C52.5696 6.84361 50.1266 7.27552 47.7155 7.83418C45.8237 8.27254 43.9408 8.79172 42.0661 9.39345C41.3676 9.61764 40.649 9.86006 39.9104 10.1207C39.4824 10.2718 38.9189 10.4756 38.2217 10.7316L38.2202 10.7331L38.2188 10.7331C37.4629 11.0591 36.5734 11.4461 35.5512 11.8938C34.3071 12.4386 33.0821 12.9785 31.877 13.5142C28.6771 14.9366 26.1357 16.0952 24.2523 16.9891C23.238 17.4704 22.4783 18.1231 21.973 18.9484C21.5462 19.6454 21.304 20.4616 21.2457 21.3964C21.2001 22.1268 21.2682 22.9342 21.4493 23.8196C21.5167 24.1488 21.6023 24.499 21.7053 24.8698ZM32.2421 27.1404C32.468 28.4454 32.701 29.7459 32.9403 31.0414C33.08 31.7988 33.2691 32.7998 33.5061 34.0451C33.7158 35.1475 33.8629 35.9388 33.9497 36.4174C34.0891 37.1856 34.2034 37.8599 34.2915 38.4422C34.3923 39.1076 34.4764 39.7585 34.5432 40.3927C34.6137 41.063 34.6719 41.7771 34.7177 42.5353C34.7641 43.3008 34.8015 44.1677 34.8297 45.1389C34.8572 46.0809 34.8778 47.1937 34.8923 48.4771C34.9056 49.6561 34.9148 51.1035 34.9199 52.8189C34.9241 54.2055 34.9257 56.0775 34.9257 58.4349C34.9257 62.6036 34.8472 66.3498 34.6886 69.6712C34.5503 72.5681 34.3487 75.1845 34.085 77.52C33.87 79.4241 33.6034 81.2229 33.2835 82.9178C33.1586 83.5798 33.0165 84.2707 32.8588 84.9905C32.7653 85.4174 32.6291 86.0213 32.4486 86.8014C32.3103 87.3989 32.2076 87.8426 32.1432 88.1323C32.0368 88.611 31.9464 89.0433 31.8712 89.4298C31.4319 91.6896 30.872 94.0997 30.1912 96.6618C29.9469 97.5809 29.6863 98.5236 29.4086 99.4894C29.2514 100.036 29.0541 100.709 28.8166 101.507L28.8152 101.51L28.8137 101.513L28.8137 101.516C28.6165 102.025 28.5061 102.478 28.4835 102.876C28.4659 103.189 28.5029 103.459 28.5941 103.687C28.6581 103.847 28.7458 103.979 28.8559 104.081C28.8898 104.113 28.9224 104.141 28.9562 104.163C28.9721 104.173 28.9843 104.179 28.9926 104.183L28.997 104.185L28.9999 104.186C29.1325 104.265 29.3192 104.371 29.5599 104.506C30.0396 104.775 30.5465 105.05 31.0813 105.331C31.8278 105.723 32.5759 106.098 33.3242 106.455C34.2579 106.901 35.1637 107.307 36.0443 107.673C37.7715 108.39 39.5813 109.029 41.4712 109.588C42.2457 109.817 43.0582 110.04 43.909 110.257C44.573 110.427 45.3165 110.607 46.1417 110.797C46.7981 110.948 47.3488 111.024 47.7912 111.024C48.1583 111.024 48.4482 110.972 48.661 110.868C48.8213 110.79 48.9373 110.68 49.0101 110.54C49.0374 110.487 49.06 110.428 49.077 110.362C49.0867 110.324 49.0963 110.273 49.1075 110.206L49.1075 106.358C49.1075 104.223 49.1532 102.073 49.2442 99.9054C49.3171 98.1713 49.4178 96.4653 49.5453 94.7883C49.6364 93.5914 49.737 92.4682 49.8464 91.4181C49.901 90.8947 49.9452 90.4891 49.9817 90.2036L49.9832 90.2021C50.1162 88.9035 50.1981 87.5509 50.229 86.144C50.2537 85.0179 50.2442 83.8832 50.2028 82.7389C50.1731 81.9219 50.1288 81.1402 50.069 80.3956C50.0392 80.0237 50.013 79.7339 49.989 79.5258L49.9875 79.5214L49.9875 79.5171C49.9875 79.436 49.985 79.3312 49.9788 79.2014C49.975 79.1216 49.968 78.988 49.957 78.8014C49.941 78.5281 49.929 78.3155 49.9221 78.1614C49.9103 77.8977 49.9024 77.651 49.9002 77.4225C49.8946 76.8205 49.9225 76.2679 49.9832 75.7643C50.1485 74.3902 50.5683 73.2979 51.2413 72.4887C51.4304 72.2614 51.5907 72.0743 51.7242 71.9258C51.8768 71.756 52.0169 71.6128 52.1417 71.4952C52.2751 71.3699 52.4028 71.2628 52.5272 71.1752C52.6544 71.0856 52.7862 71.0091 52.9213 70.9469C53.0537 70.8859 53.199 70.8352 53.3562 70.7927C53.503 70.753 53.6719 70.7178 53.8639 70.688C54.0303 70.6621 54.2361 70.6374 54.4821 70.6123C54.6354 70.5968 54.892 70.5728 55.2501 70.5411C55.7093 70.5005 56.0774 70.4654 56.3555 70.4378C56.8303 70.3905 57.2984 70.3392 57.7606 70.2822C59.0767 70.12 60.0921 69.9811 60.805 69.8661C61.1288 69.8139 61.4614 69.7558 61.8028 69.6916C62.0153 69.6516 62.3545 69.5851 62.8224 69.4923C63.5309 69.3517 64.137 69.2339 64.6406 69.1389C65.5152 68.9738 66.4946 68.7969 67.5773 68.608C69.0383 68.3533 70.3104 68.4653 71.3941 68.944C71.8649 69.152 72.2957 69.4276 72.6871 69.7716C73.0367 70.0788 73.3512 70.4378 73.6311 70.848C73.8761 71.2068 74.0915 71.5997 74.277 72.0276C74.4351 72.3923 74.5677 72.7735 74.6755 73.1709C74.7644 73.4989 74.8316 73.8206 74.8777 74.1367C74.9155 74.3956 74.9344 74.6128 74.9344 74.7883C74.9344 74.9302 74.9512 75.1306 74.9839 75.3891C75.0166 75.6475 75.0632 75.9518 75.125 76.2996C75.2566 77.0384 75.4329 77.8625 75.6515 78.7723C75.892 79.7731 76.1532 80.7424 76.4355 81.6814C76.7545 82.7419 77.0768 83.684 77.4028 84.5076C77.5397 84.8535 77.6867 85.2493 77.8435 85.696C77.9382 85.9655 78.0802 86.3821 78.2697 86.944C78.4399 87.449 78.5704 87.8336 78.6624 88.0989C78.8157 88.5409 78.9631 88.9501 79.1031 89.3251C79.4573 90.2739 79.8329 91.1773 80.2304 92.0349C80.7145 93.0795 81.2594 94.1237 81.8668 95.168C82.5593 96.3584 83.3477 97.5763 84.2304 98.8203C86.4287 101.918 88.7804 104.638 91.285 106.982C93.2856 108.854 95.3635 110.466 97.5191 111.818C98.4243 112.386 99.1683 112.795 99.7519 113.044C100.302 113.28 100.744 113.39 101.077 113.372C101.23 113.363 101.365 113.328 101.483 113.267C101.593 113.21 101.692 113.127 101.781 113.02C101.863 112.92 101.94 112.794 102.014 112.64C102.075 112.511 102.142 112.347 102.212 112.147C102.338 111.786 102.504 111.238 102.712 110.503C102.839 110.054 103.045 109.305 103.329 108.257C103.56 107.402 103.736 106.756 103.857 106.318C104.057 105.596 104.235 104.97 104.392 104.441C104.731 103.3 105.348 100.777 106.245 96.8727C106.545 95.5669 106.855 94.2017 107.173 92.7767C107.416 91.6867 107.58 90.9461 107.663 90.5556C107.711 90.3339 107.702 90.1531 107.637 90.0131C107.584 89.898 107.491 89.8087 107.359 89.7454C107.25 89.6935 107.114 89.6586 106.95 89.6407C106.856 89.6304 106.729 89.6247 106.571 89.6247L103.662 89.6247C103.173 89.6247 102.66 89.602 102.121 89.5563C101.367 89.4925 100.622 89.388 99.8842 89.2421C98.9609 89.0595 98.0781 88.8174 97.2355 88.5163C96.2384 88.1601 95.3128 87.7259 94.4602 87.2145C92.8493 86.248 91.3347 85.1546 89.9148 83.9345C89.3618 83.4593 88.8095 82.9547 88.2595 82.4189C87.8694 82.0388 87.4349 81.5968 86.9548 81.0938C86.7533 80.8829 86.5337 80.6305 86.2944 80.3374C86.0359 80.0209 85.7738 79.6798 85.509 79.3134C84.8885 78.4554 84.3277 77.5709 83.8261 76.6603C83.2281 75.575 82.7618 74.5342 82.4282 73.5389C82.0386 72.3763 81.8435 71.3139 81.8435 70.352C81.8435 69.8958 81.8595 69.4966 81.8901 69.152C81.9231 68.7812 81.9754 68.4443 82.0486 68.1425C82.1244 67.8305 82.2265 67.5367 82.3541 67.2611C82.4816 66.9854 82.6423 66.7137 82.8355 66.4451C83.0224 66.1853 83.2505 65.9139 83.5206 65.6305C83.7719 65.367 84.0784 65.0736 84.4399 64.7505C84.7529 64.4708 85.1475 64.1322 85.6239 63.7367C85.9202 63.4907 86.4138 63.0867 87.1046 62.5236C88.1058 61.7078 88.9058 61.0503 89.5061 60.5512C90.9881 59.319 92.1981 58.2775 93.1366 57.4269C94.0307 56.6164 94.7619 55.9024 95.3301 55.2858C95.597 54.9962 95.8425 54.713 96.0661 54.4363C96.2703 54.1837 96.4671 53.9238 96.6566 53.6553C96.8182 53.4263 96.9913 53.1687 97.1744 52.8814C97.2869 52.7053 97.4582 52.4292 97.6893 52.0538C97.8246 51.8343 97.9286 51.6663 98.0006 51.5505C98.4298 50.8599 98.8122 50.0443 99.1497 49.1025C99.5071 48.1049 99.7878 47.0345 99.9904 45.8938C100.209 44.6618 100.326 43.407 100.341 42.128C100.358 40.736 100.253 39.3607 100.027 38.0014C99.8201 36.7622 99.4653 35.5734 98.9635 34.4363C98.5228 33.4378 97.9593 32.4586 97.2719 31.4996C96.7068 30.7114 96.0264 29.8942 95.2297 29.0487C94.9154 28.7152 94.5593 28.3534 94.1635 27.9622C93.9276 27.729 93.5788 27.3898 93.1162 26.944C92.8317 26.6697 92.6204 26.465 92.4835 26.3316C92.1352 25.9923 91.7151 25.6316 91.221 25.2494C90.7382 24.8761 90.1945 24.4889 89.5904 24.0887C88.3894 23.2929 87.0323 22.4969 85.5191 21.6989C83.9885 20.8915 82.4309 20.154 80.8472 19.4851C79.1862 18.7836 77.621 18.2102 76.1504 17.7673C74.6517 17.3159 73.1123 16.9598 71.5337 16.6982C69.9711 16.4392 68.3285 16.267 66.6042 16.1804C64.9223 16.0958 63.1138 16.0896 61.1802 16.1644C59.329 16.2359 57.2982 16.3836 55.0872 16.6065C52.1712 16.9006 48.591 17.7053 44.3468 19.0196C42.8003 19.4985 41.1426 20.0535 39.3722 20.6836C38.7045 20.9213 37.9932 21.179 37.2399 21.4574C36.801 21.6196 36.2027 21.8419 35.4435 22.1265C34.6922 22.4083 34.1791 22.5997 33.9032 22.6996C33.4633 22.859 33.1586 22.961 32.9897 23.0051C32.6066 23.105 32.2989 23.2278 32.0675 23.3731C31.877 23.4928 31.7403 23.626 31.6559 23.7745C31.591 23.8887 31.5568 24.0138 31.5541 24.1484C31.5541 24.1991 31.5565 24.2524 31.5643 24.3098C31.5688 24.3434 31.5762 24.3897 31.5875 24.4465L32.2421 27.136L32.2421 27.1404ZM48.87 34.2283C48.9103 34.6403 48.9682 35.1719 49.0445 35.8254C49.23 37.6203 49.4322 39.6425 49.6525 41.8909C49.9539 44.9655 50.1853 47.4279 50.3449 49.2785C50.5016 51.097 50.6365 53.4443 50.7493 56.32C50.7897 57.3511 50.8262 58.4554 50.8613 59.6334C50.8809 60.298 50.9037 61.1341 50.9296 62.1411C50.9273 62.1584 50.9267 62.1814 50.9253 62.208C50.9219 62.2666 50.9213 62.3271 50.9253 62.3898C50.9376 62.5901 50.9837 62.7736 51.0634 62.9411C51.1757 63.1771 51.3471 63.3619 51.5784 63.4967C51.8624 63.6622 52.2294 63.7454 52.6765 63.7454C53.521 63.7454 55.0652 63.6704 57.3107 63.52C58.1824 63.4616 59.0712 63.3975 59.9769 63.328C60.7897 63.2656 61.4629 63.2109 61.9958 63.1636L61.9987 63.1636L62.0002 63.1622C62.0591 63.153 62.1429 63.1384 62.2518 63.1185C62.4691 63.0788 62.7037 63.0326 62.9544 62.9789C63.7558 62.8072 64.5731 62.5987 65.4082 62.352C66.577 62.0065 67.6973 61.6102 68.7667 61.1636C70.1037 60.6054 71.3238 59.9843 72.4278 59.2989C73.561 58.5953 74.6664 57.768 75.7442 56.8174C76.6783 55.9937 77.5763 55.0919 78.4365 54.112C79.1609 53.2868 79.8341 52.4343 80.4569 51.5563C80.968 50.8358 81.4029 50.16 81.7616 49.5273C81.917 49.2531 82.0645 48.8993 82.2038 48.4654C82.3395 48.0427 82.4613 47.5622 82.5704 47.024C82.6794 46.4859 82.7712 45.9153 82.8438 45.312C82.9178 44.6951 82.9686 44.071 82.998 43.44C83.0285 42.7833 83.033 42.1433 83.0125 41.52C82.9909 40.863 82.9416 40.2433 82.8642 39.6625C82.782 39.0454 82.6713 38.4854 82.5296 37.9811C82.3783 37.4427 82.1944 36.9766 81.9798 36.5833C81.5379 35.7732 81.0659 34.9927 80.5631 34.2429C80.0502 33.4784 79.5141 32.7587 78.9544 32.0814C78.3797 31.3862 77.7877 30.746 77.1798 30.1629C76.5523 29.561 75.916 29.0262 75.2685 28.5585C75.1917 28.5031 75.0768 28.4198 74.9238 28.3084C74.509 28.0064 74.1927 27.782 73.9769 27.6334C73.6163 27.3854 73.2748 27.1677 72.9514 26.9789C72.5631 26.7523 72.1683 26.5468 71.7674 26.3651C71.3176 26.1613 70.8442 25.9796 70.3478 25.8182C69.2378 25.457 67.9516 25.1847 66.4904 25.0007C64.8534 24.7946 62.9421 24.6909 60.7536 24.6909C58.7178 24.6909 56.9279 24.8563 55.3849 25.1884C54.0831 25.4685 52.9638 25.8659 52.0264 26.3796C51.2921 26.782 50.669 27.2569 50.1573 27.8051C49.9676 28.0081 49.7875 28.2275 49.6191 28.4611C49.5221 28.5956 49.4032 28.7732 49.2613 28.9964C49.1653 29.1473 49.0982 29.2496 49.0591 29.3018C48.8981 29.5165 48.7914 29.9105 48.7405 30.4829C48.6982 30.958 48.6925 31.5572 48.7245 32.2822C48.7496 32.8497 48.7987 33.4989 48.87 34.2283ZM63.4853 44.0349C62.5782 43.7849 61.8437 43.6541 61.2802 43.6436C60.7958 43.6346 60.4346 43.7153 60.1951 43.8836C60.0927 43.9555 60.0096 44.0443 59.9478 44.1513C59.8924 44.2471 59.8517 44.3603 59.8256 44.4902C59.8035 44.5997 59.7912 44.7277 59.7878 44.8756C59.7858 44.9648 59.7878 45.0995 59.7936 45.2785C59.7977 45.4081 59.7994 45.5033 59.7994 45.5651L59.7994 52.7651C59.7994 53.6957 59.8883 54.2561 60.0671 54.4436C60.0986 54.4768 60.1346 54.4974 60.1733 54.5076C60.2089 54.5169 60.2499 54.5178 60.2969 54.5091C60.3397 54.5011 60.39 54.4842 60.4482 54.4596C60.4847 54.4442 60.5414 54.4184 60.6169 54.3811C60.6936 54.343 60.7514 54.3146 60.79 54.2982C60.9107 54.2468 61.0895 54.1604 61.3267 54.0392C61.4748 53.9636 61.7347 53.8289 62.1064 53.6334C62.4658 53.4442 62.7453 53.2973 62.9471 53.1927C63.2912 53.0142 63.6138 52.8505 63.9129 52.7011C63.9845 52.6653 64.0933 52.6107 64.2402 52.5396C64.4739 52.4262 64.6496 52.3399 64.7667 52.2793C64.9619 52.1779 65.1336 52.0804 65.2831 51.9869C65.6584 51.7521 65.9615 51.4954 66.1922 51.2174C66.4709 50.8817 66.6669 50.4907 66.7798 50.0451C66.9085 49.5361 66.9328 48.9428 66.854 48.2647C66.6992 46.9337 66.2072 45.8865 65.3762 45.1229C65.078 44.849 64.7343 44.6113 64.3449 44.4087C64.1994 44.3331 64.0424 44.2595 63.8751 44.1891C63.7785 44.1485 63.6485 44.097 63.4853 44.0349Z" fill-rule="evenodd"  fill="#126CCC" >
</path>
</svg>
